<?xml version="1.0" encoding="UTF-8" standalone="no"?>
<!DOCTYPE svg PUBLIC "-//W3C//DTD SVG 1.1//EN" "http://www.w3.org/Graphics/SVG/1.1/DTD/svg11.dtd">
<svg width="100%" height="100%" viewBox="0 0 100 100" version="1.1" xmlns="http://www.w3.org/2000/svg" xmlns:xlink="http://www.w3.org/1999/xlink" xml:space="preserve" style="fill-rule:evenodd;clip-rule:evenodd;stroke-linejoin:round;stroke-miterlimit:1.41421;">
    <path d="M50,0c-27.613,0 -50,22.387 -50,50c0,27.613 22.387,50 50,50c27.613,0 50,-22.387 50,-50c0,-27.613 -22.387,-50 -50,-50Zm0,93.333c-23.893,0 -43.333,-19.44 -43.333,-43.333c0,-23.893 19.44,-43.333 43.333,-43.333c23.893,0 43.333,19.44 43.333,43.333c0,23.893 -19.44,43.333 -43.333,43.333Zm0,-55.883c-3.45,0 -6.25,2.8 -6.25,6.25l0,31.25c0,3.45 2.8,6.25 6.25,6.25c3.45,0 6.25,-2.8 6.25,-6.25l0,-31.25c0,-3.45 -2.8,-6.25 -6.25,-6.25Zm-3.125,-6.987c1.934,1.116 4.316,1.116 6.25,0c1.934,-1.117 3.125,-3.18 3.125,-5.413c0,-2.233 -1.191,-4.296 -3.125,-5.413c-1.934,-1.116 -4.316,-1.116 -6.25,0c-1.934,1.117 -3.125,3.18 -3.125,5.413c0,2.233 1.191,4.296 3.125,5.413Z"/>
</svg>
